<svg width="1200" height="630" viewBox="0 0 1200 630" fill="none" xmlns="http://www.w3.org/2000/svg">
  <rect width="1200" height="630" fill="#0f172a"/>
  
  <!-- Subtle Gradient Glow -->
  <circle cx="1000" cy="100" r="400" fill="#7c3aed" fill-opacity="0.1"/>
  <circle cx="200" cy="500" r="300" fill="#4f46e5" fill-opacity="0.1"/>

  <!-- Logo Icon -->
  <rect x="100" y="100" width="120" height="120" rx="32" fill="#7c3aed"/>
  <path d="M165 170V135L120 190h35v35l45-55h-35z" stroke="white" stroke-width="4" stroke-linecap="round" stroke-linejoin="round"/>

  <!-- Brand Text -->
  <text x="100" y="320" fill="white" font-family="Inter, system-ui, sans-serif" font-size="84" font-weight="900" letter-spacing="-0.05em">Vyapak <tspan fill="#a78bfa">AI</tspan></text>
  <text x="100" y="400" fill="#94a3b8" font-family="Inter, system-ui, sans-serif" font-size="32" font-weight="500" letter-spacing="-0.02em">Professional local LLM bridge for Ollama</text>

  <!-- Tagline Pill -->
  <rect x="100" y="460" width="320" height="48" rx="24" fill="#1e293b" stroke="#334155"/>
  <text x="130" y="492" fill="#e2e8f0" font-family="Inter, system-ui, sans-serif" font-size="18" font-weight="700" letter-spacing="0.1em">PRIVACY-FIRST AI</text>

  <!-- Decorative Interface Elements -->
  <rect x="700" y="150" width="400" height="300" rx="24" fill="#1e293b" fill-opacity="0.5" stroke="#334155" stroke-width="2"/>
  <rect x="730" y="190" width="200" height="12" rx="6" fill="#7c3aed" fill-opacity="0.3"/>
  <rect x="730" y="220" width="300" height="12" rx="6" fill="#334155"/>
  <rect x="730" y="250" width="150" height="12" rx="6" fill="#334155"/>
  <rect x="730" y="340" width="100" height="32" rx="8" fill="#7c3aed"/>
</svg>
